<svg xmlns="http://www.w3.org/2000/svg" xmlns:xlink="http://www.w3.org/1999/xlink" width="70" zoomAndPan="magnify" viewBox="0 0 52.5 42" height="56" preserveAspectRatio="xMidYMid meet" version="1.0"><defs><clipPath id="0a7d578011"><path d="M 0.367188 0.242188 L 51.644531 0.242188 L 51.644531 40.53125 L 0.367188 40.53125 Z M 0.367188 0.242188 " clip-rule="nonzero"/></clipPath></defs><g clip-path="url(#0a7d578011)"><path fill="#7d5932" d="M 25.984375 10.953125 L 25.984375 1.332031 C 25.984375 0.9375 25.761719 0.578125 25.414062 0.390625 C 25.066406 0.207031 24.640625 0.230469 24.316406 0.453125 L 0.847656 16.453125 C 0.558594 16.652344 0.382812 16.980469 0.382812 17.332031 C 0.382812 17.6875 0.558594 18.015625 0.851562 18.214844 L 24.316406 34.214844 C 24.640625 34.4375 25.066406 34.460938 25.414062 34.273438 C 25.761719 34.089844 25.984375 33.726562 25.984375 33.332031 L 25.984375 23.765625 C 37.929688 24.480469 49.355469 36.945312 49.449219 39.71875 C 49.449219 39.722656 49.449219 39.726562 49.449219 39.730469 C 49.449219 39.738281 49.449219 39.742188 49.449219 39.75 C 49.484375 40.308594 49.949219 40.75 50.511719 40.75 C 50.523438 40.75 50.53125 40.75 50.542969 40.75 C 51.128906 40.734375 51.59375 40.25 51.582031 39.664062 C 51.363281 27.871094 42.363281 11.632812 25.984375 10.953125 Z M 25.984375 10.953125 " fill-opacity="1" fill-rule="nonzero"/></g></svg>