<svg xmlns="http://www.w3.org/2000/svg" xmlns:xlink="http://www.w3.org/1999/xlink" width="800" zoomAndPan="magnify" viewBox="0 0 600 213" height="284" preserveAspectRatio="xMidYMid meet" version="1.0"><path fill="#ffffff" d="M 144.285156 209.324219 C 149.828125 193.019531 155.367188 176.703125 160.90625 160.390625 C 161.808594 157.746094 162.832031 154.925781 165.105469 153.304688 C 167.210938 151.8125 169.953125 151.65625 172.535156 151.546875 C 281.132812 147.050781 389.460938 136.011719 496.738281 118.507812 C 522.605469 114.289062 549.738281 109.089844 569.765625 92.183594 C 589.792969 75.28125 599.03125 42.667969 582.34375 22.464844 C 568.144531 5.269531 542.699219 3.882812 520.402344 4.390625 C 365.921875 7.910156 213.117188 35.550781 61.164062 63.632812 C 48.796875 65.917969 36.148438 68.308594 25.273438 74.621094 C 14.394531 80.9375 5.445312 92.054688 5.242188 104.632812 C 4.972656 121.917969 18.601562 136.84375 34.109375 144.476562 C 55.234375 154.871094 73.417969 152.960938 100.636719 154.335938 C 106.296875 154.617188 115.945312 156.023438 121.300781 157.863281 C 130.480469 161.011719 135.902344 170.546875 138.582031 179.878906 C 141.253906 189.207031 142.53125 199.917969 143.761719 209.777344 " fill-opacity="1" fill-rule="nonzero"/><path fill="#866b59" d="M 146.75 210.007812 C 150.78125 198.144531 154.8125 186.28125 158.839844 174.417969 C 159.847656 171.449219 160.855469 168.484375 161.863281 165.519531 C 162.667969 163.152344 163.347656 158.914062 165.109375 157.027344 C 169.632812 152.1875 180.707031 153.761719 186.699219 153.484375 C 211.875 152.308594 237.035156 150.78125 262.167969 148.902344 C 312.4375 145.152344 362.605469 139.996094 412.582031 133.441406 C 436.632812 130.289062 460.632812 126.828125 484.589844 123.035156 C 505.777344 119.679688 527.539062 116.777344 547.46875 108.429688 C 564.425781 101.332031 579.445312 90.023438 587.488281 73.128906 C 594.277344 58.863281 596.238281 41.5 588.5625 27.160156 C 580.40625 11.925781 563.6875 5.207031 547.390625 2.972656 C 526.125 0.0546875 503.9375 2.152344 482.605469 3.164062 C 432.253906 5.550781 382.035156 10.300781 332.023438 16.589844 C 282.488281 22.816406 233.15625 30.523438 183.953125 38.953125 C 159.449219 43.148438 134.976562 47.519531 110.519531 51.972656 C 98.101562 54.230469 85.6875 56.515625 73.277344 58.804688 C 61.824219 60.917969 50.117188 62.582031 38.960938 66.039062 C 22.179688 71.238281 4.929688 83.054688 2.875 101.964844 C 0.917969 119.996094 14.175781 135.929688 28.859375 144.542969 C 44.585938 153.765625 62.460938 155.613281 80.316406 156.191406 C 90.636719 156.523438 101.066406 156.378906 111.273438 158.125 C 115.804688 158.902344 120.613281 159.746094 124.527344 162.296875 C 129.207031 165.351562 132.371094 170.554688 134.433594 175.636719 C 138.777344 186.328125 139.789062 198.429688 141.207031 209.777344 C 141.605469 212.996094 146.726562 213.035156 146.316406 209.777344 C 144.222656 193 143.347656 170.007812 128.460938 158.855469 C 122.328125 154.253906 114.160156 153.238281 106.753906 152.335938 C 97.082031 151.152344 87.25 151.339844 77.519531 150.980469 C 58.496094 150.273438 38.914062 147.355469 23.765625 134.789062 C 16.03125 128.378906 9.652344 119.691406 8.152344 109.566406 C 6.585938 99.019531 11.378906 89.359375 19.0625 82.328125 C 35.429688 67.339844 61.976562 66.0625 82.78125 62.234375 C 106.835938 57.808594 130.898438 53.417969 154.984375 49.164062 C 202.378906 40.785156 249.875 32.925781 297.539062 26.277344 C 346.074219 19.507812 394.804688 14.03125 443.691406 10.582031 C 467.65625 8.890625 491.660156 7.683594 515.675781 7.0625 C 534.046875 6.589844 554.792969 5.886719 571.015625 15.960938 C 587.519531 26.210938 591.511719 45.765625 585.871094 63.441406 C 579.824219 82.382812 564.796875 95.332031 546.984375 103.121094 C 527.644531 111.578125 506.242188 114.441406 485.5625 117.730469 C 461.289062 121.597656 436.957031 125.136719 412.582031 128.332031 C 364.554688 134.625 316.355469 139.628906 268.058594 143.34375 C 244.109375 145.1875 220.128906 146.710938 196.136719 147.910156 C 190.234375 148.207031 184.335938 148.484375 178.433594 148.738281 C 174.003906 148.9375 168.691406 148.433594 164.660156 150.652344 C 161.703125 152.28125 160.199219 155.0625 159.003906 158.109375 C 156.804688 163.726562 155.09375 169.574219 153.152344 175.28125 C 149.375 186.402344 145.597656 197.527344 141.820312 208.648438 C 140.761719 211.773438 145.699219 213.113281 146.75 210.007812 " fill-opacity="1" fill-rule="nonzero"/><path fill="#866b59" d="M 509.601562 15.488281 C 531.683594 12.921875 560.339844 10.71875 573.378906 33.066406 C 574.484375 34.960938 577.433594 33.246094 576.324219 31.34375 C 562.617188 7.847656 533.019531 9.359375 509.601562 12.074219 C 507.449219 12.324219 507.421875 15.742188 509.601562 15.488281 " fill-opacity="1" fill-rule="nonzero"/><path fill="#866b59" d="M 19.09375 118.449219 C 10.546875 98.90625 29.574219 83.707031 46.304688 79 C 48.414062 78.410156 47.515625 75.121094 45.398438 75.714844 C 26.238281 81.105469 6.675781 98.511719 16.148438 120.175781 C 17.027344 122.175781 19.96875 120.441406 19.09375 118.449219 " fill-opacity="1" fill-rule="nonzero"/><path fill="#866b59" d="M 146.003906 174.347656 C 145.8125 176.679688 145.542969 178.988281 145.175781 181.296875 C 146.289062 181.445312 147.40625 181.601562 148.519531 181.753906 C 148.050781 173.054688 144.613281 165.175781 138.515625 158.960938 C 136.972656 157.398438 134.5625 159.808594 136.105469 161.371094 C 141.574219 166.949219 144.691406 173.949219 145.117188 181.753906 C 145.210938 183.550781 148.144531 184.203125 148.460938 182.203125 C 148.878906 179.589844 149.199219 176.984375 149.414062 174.347656 C 149.59375 172.164062 146.183594 172.171875 146.003906 174.347656 " fill-opacity="1" fill-rule="nonzero"/></svg>