<svg xmlns="http://www.w3.org/2000/svg" xmlns:xlink="http://www.w3.org/1999/xlink" width="70" zoomAndPan="magnify" viewBox="0 0 52.5 42" height="56" preserveAspectRatio="xMidYMid meet" version="1.0"><defs><clipPath id="67c4dbc575"><path d="M 0.367188 0.242188 L 51.597656 0.242188 L 51.597656 40.53125 L 0.367188 40.53125 Z M 0.367188 0.242188 " clip-rule="nonzero"/></clipPath></defs><g clip-path="url(#67c4dbc575)"><path fill="#7d5932" d="M 25.984375 10.953125 L 25.984375 1.332031 C 25.984375 0.9375 26.203125 0.578125 26.550781 0.390625 C 26.898438 0.207031 27.324219 0.230469 27.652344 0.453125 L 51.117188 16.453125 C 51.40625 16.652344 51.582031 16.980469 51.582031 17.332031 C 51.582031 17.6875 51.40625 18.015625 51.113281 18.214844 L 27.648438 34.214844 C 27.324219 34.4375 26.898438 34.460938 26.550781 34.273438 C 26.203125 34.089844 25.984375 33.726562 25.984375 33.332031 L 25.984375 23.765625 C 14.035156 24.480469 2.613281 36.945312 2.515625 39.71875 C 2.515625 39.722656 2.515625 39.726562 2.515625 39.730469 C 2.515625 39.738281 2.515625 39.742188 2.515625 39.75 C 2.480469 40.308594 2.015625 40.75 1.453125 40.75 C 1.441406 40.75 1.433594 40.75 1.421875 40.75 C 0.839844 40.734375 0.375 40.25 0.382812 39.664062 C 0.601562 27.871094 9.601562 11.632812 25.984375 10.953125 Z M 25.984375 10.953125 " fill-opacity="1" fill-rule="nonzero"/></g></svg>